<svg viewBox="0 0 40 40" width="40" height="40" fill="none" xmlns="http://www.w3.org/2000/svg">
  
  <!-- optional background circle so it's visible on dark/light tabs -->
  <circle cx="20" cy="20" r="20" fill="#f9f6f1"/>

  <path
    d="M20 35C20 35 6 26 6 16C6 11.582 9.582 8 14 8C16.418 8 18.582 9.09 20 10.836C21.418 9.09 23.582 8 26 8C30.418 8 34 11.582 34 16C34 26 20 35 20 35Z"
    fill="#4a8c8c"
    opacity=".25"
  />
  <path
    d="M20 31C20 31 8 23.5 8 15.5C8 11.91 10.91 9 14.5 9C16.5 9 18.3 9.9 19.5 11.3"
    stroke="#2f6b6b"
    stroke-width="1.5"
    stroke-linecap="round"
  />
  <path
    d="M20 31C20 31 32 23.5 32 15.5C32 11.91 29.09 9 25.5 9C23.5 9 21.7 9.9 20.5 11.3"
    stroke="#2f6b6b"
    stroke-width="1.5"
    stroke-linecap="round"
  />
</svg>